<?xml version="1.0" encoding="utf-8"?>
<!-- Generator: Adobe Illustrator 19.0.0, SVG Export Plug-In . SVG Version: 6.00 Build 0)  -->
<svg version="1.1" id="layer" xmlns="http://www.w3.org/2000/svg" xmlns:xlink="http://www.w3.org/1999/xlink" x="0px" y="0px"
	 viewBox="-153 -46 652 652" style="enable-background:new -153 -46 652 652;" xml:space="preserve">
<style type="text/css">
	.st0{fill:#E31F26;}
</style>
<path d="M75.7,250.5h-0.3V289c0,0.3-0.1,0.5-0.4,0.6c-1,0.4-2.5,0.6-4.6,0.6c-1.9,0-3.5-0.2-4.5-0.6c-0.2-0.1-0.4-0.3-0.4-0.6v-45.2
	c0-0.3,0.2-0.6,0.5-0.6c2-0.4,5.4-0.6,8.6-0.6c3.4,0,6,0.2,7.9,0.6c0.2,0.1,0.4,0.2,0.5,0.4l11.5,37.1h0.3l10.9-37
	c0.1-0.2,0.2-0.4,0.5-0.4c1.9-0.4,4.5-0.6,7.9-0.6c3.2,0,6.3,0.2,8.3,0.6c0.3,0.1,0.5,0.3,0.5,0.6V289c0,0.3-0.1,0.5-0.4,0.6
	c-1,0.4-2.4,0.6-4.5,0.6c-1.9,0-3.5-0.2-4.6-0.6c-0.2-0.1-0.4-0.3-0.4-0.6v-38.4h-0.3l-13,38.8c-0.1,0.2-0.2,0.3-0.4,0.4
	c-1.1,0.4-2.7,0.6-5,0.6c-2.1,0-3.8-0.2-4.9-0.6c-0.2-0.1-0.3-0.2-0.4-0.4L75.7,250.5z M134.1,243.8c0-0.3,0.1-0.5,0.4-0.6
	c1.1-0.4,2.9-0.7,5.1-0.7c2.3,0,4,0.3,5.1,0.7c0.2,0.1,0.4,0.3,0.4,0.6v45c0,0.3-0.1,0.5-0.4,0.6c-1.1,0.4-2.8,0.7-5.1,0.7
	c-2.3,0-4-0.3-5.1-0.7c-0.3-0.1-0.4-0.3-0.4-0.6V243.8z M215.4,282.9c6.5,0,9-2.2,9-5.8c0-9.7-24.3-4.5-24.3-21.5
	c0-9.5,6.8-14.4,18.1-14.4c4.8,0,8.9,0.9,12.7,2.8c0.1,0.1,0.2,0.1,0.3,0.3c1.4,2.1,2.1,5.3,2,8c0,0.5-0.5,0.8-0.9,0.6
	c-3.8-1.9-8.5-3.3-13.1-3.3c-5.4,0-7.8,1.8-7.8,4.8c0,9.1,24.1,4.3,24.1,21.5c0,11.6-8.8,15.5-19.8,15.5c-5.3,0-10.3-0.9-14.3-2.6
	c-0.1-0.1-0.2-0.1-0.3-0.3c-1.5-2.3-2.1-5.8-2-8.4c0-0.5,0.5-0.8,0.9-0.6C204,281.5,210.4,282.9,215.4,282.9z M253.7,272
	c0,7,3.2,10.3,10.5,10.3c7.9,0,10.9-4,10.9-10.5v-28.1c0-0.3,0.1-0.5,0.4-0.6c1.1-0.4,2.8-0.7,4.9-0.7c2.3,0,4,0.3,5,0.7
	c0.2,0.1,0.4,0.3,0.4,0.6v27.4c0,12.7-6.6,20.2-22.1,20.2c-14.3,0-21-6.4-21-18.5v-29.1c0-0.3,0.1-0.5,0.4-0.6
	c1.1-0.4,2.9-0.7,5.1-0.7c2.3,0,4,0.3,5.1,0.7c0.2,0.1,0.4,0.3,0.4,0.6L253.7,272L253.7,272z M344.4,243.8c0-0.3,0.1-0.5,0.4-0.6
	c1.1-0.4,2.9-0.7,5.1-0.7c2.3,0,4,0.3,5.1,0.7c0.2,0.1,0.4,0.3,0.4,0.6v45c0,0.3-0.1,0.5-0.4,0.6c-1.1,0.4-2.8,0.7-5.1,0.7
	c-2.3,0-4-0.3-5.1-0.7c-0.3-0.1-0.4-0.3-0.4-0.6V243.8z M380,282.9c6.5,0,9-2.2,9-5.8c0-9.7-24.3-4.5-24.3-21.5
	c0-9.5,6.8-14.4,18.1-14.4c4.8,0,8.9,0.9,12.7,2.8c0.1,0.1,0.2,0.1,0.3,0.3c1.4,2.1,2.1,5.3,2,8c0,0.5-0.5,0.8-0.9,0.6
	c-3.8-1.9-8.5-3.3-13.1-3.3c-5.4,0-7.8,1.8-7.8,4.8c0,9.1,24.1,4.3,24.1,21.5c0,11.6-8.8,15.5-19.8,15.5c-5.3,0-10.3-0.9-14.3-2.6
	c-0.1-0.1-0.2-0.1-0.3-0.3c-1.5-2.3-2.1-5.8-2-8.4c0-0.5,0.5-0.8,0.9-0.6C368.6,281.5,375,282.9,380,282.9z M462.9,243.8
	c0-0.3,0.1-0.5,0.4-0.6c1.1-0.4,2.9-0.7,5.1-0.7c2.3,0,4,0.3,5.1,0.7c0.2,0.1,0.4,0.3,0.4,0.6v45c0,0.3-0.1,0.5-0.4,0.6
	c-1.1,0.4-2.8,0.7-5.1,0.7c-2.3,0-4-0.3-5.1-0.7c-0.3-0.1-0.4-0.3-0.4-0.6V243.8z M168.4,251.5h-14.2c-0.3,0-0.5-0.2-0.6-0.4
	c-0.3-1-0.6-2.5-0.6-4c0-1.5,0.3-3,0.6-3.9c0.1-0.3,0.3-0.4,0.6-0.4h39.4c0.3,0,0.5,0.2,0.6,0.4c0.3,0.9,0.6,2.4,0.6,3.9
	c0,1.5-0.3,3.1-0.6,4c-0.1,0.3-0.3,0.4-0.6,0.4h-14.2v37.3c0,0.3-0.1,0.5-0.4,0.6c-1.1,0.4-2.8,0.7-5.1,0.7c-2.3,0-4-0.3-5.1-0.7
	c-0.3-0.1-0.4-0.3-0.4-0.6L168.4,251.5L168.4,251.5z M326.5,265.3c6,1.5,9.9,4.6,9.9,11.1c0,10.3-9.9,14-22.5,14
	c-6.1,0-12.8-0.3-17.5-0.7c-0.3,0-0.6-0.3-0.6-0.6v-45.2c0-0.3,0.2-0.6,0.5-0.6c4.4-0.8,10-1.3,15.8-1.3c12.5,0,21.6,3.5,21.6,12.9
	c0,5.2-2.8,8.8-7.2,9.9L326.5,265.3L326.5,265.3z M306.7,261.6h7.3c5.4,0,8.6-1.8,8.6-5.5c0-4-3.8-5.8-10.1-5.8
	c-2.3,0-4.2,0.1-5.8,0.4V261.6z M306.7,281.7c2,0.2,4.4,0.3,7.2,0.3c7.1,0,11.2-1.9,11.2-6.1c0-4.2-4.2-6.1-11.1-6.1h-7.4V281.7z
	 M440.9,270.2H419v18.6c0,0.3-0.1,0.5-0.4,0.6c-1.1,0.4-2.8,0.7-5.1,0.7c-2.3,0-4-0.3-5.1-0.7c-0.3-0.1-0.4-0.3-0.4-0.6v-45
	c0-0.3,0.1-0.5,0.4-0.6c1.1-0.4,2.8-0.7,5.1-0.7c2.3,0,4,0.3,5.1,0.7c0.3,0.1,0.4,0.3,0.4,0.6v17.7h21.9v-17.7
	c0-0.3,0.1-0.5,0.4-0.6c1.1-0.4,2.8-0.7,5.1-0.7s4,0.3,5.1,0.7c0.3,0.1,0.4,0.3,0.4,0.6v45c0,0.3-0.1,0.5-0.4,0.6
	c-1.1,0.4-2.8,0.7-5.1,0.7s-4-0.3-5.1-0.7c-0.3-0.1-0.4-0.3-0.4-0.6V270.2z M158.3,327.5c0,16.6-9.7,25.6-24.6,25.6
	c-15.9,0-24.7-8.4-24.7-25.6c0-15.4,10.4-24.6,24.7-24.6C148.4,302.9,158.3,311.4,158.3,327.5z M133.7,344.3c8.7,0,13.3-6,13.3-16.8
	c0-9.9-5.2-15.9-13.3-15.9c-8.7,0-13.3,5.8-13.3,15.9C120.3,338.3,125.2,344.3,133.7,344.3z M195.8,313l-8.7,37.9
	c-0.1,0.3-0.2,0.4-0.5,0.5c-1.7,0.3-4.2,0.6-7.2,0.6c-3,0-5.4-0.2-7.1-0.6c-0.3-0.1-0.4-0.2-0.5-0.5L161,305.6
	c-0.1-0.3,0.1-0.6,0.4-0.8c1-0.4,2.6-0.7,5-0.7c2.2,0,4.1,0.2,5.3,0.8c0.2,0.1,0.3,0.3,0.3,0.4l7.8,37.4h0.3l8.3-37.7
	c0.1-0.2,0.2-0.4,0.5-0.5c1.7-0.4,4.2-0.6,7.2-0.6c2.9,0,5.4,0.2,7.1,0.6c0.2,0.1,0.4,0.3,0.5,0.5l8.2,37.8h0.3l7.9-37.6
	c0-0.2,0.2-0.4,0.4-0.5c1.1-0.4,2.9-0.7,5-0.7c2.2,0,3.7,0.2,4.7,0.6c0.3,0.1,0.5,0.4,0.4,0.8l-10.9,45.4c-0.1,0.2-0.2,0.4-0.5,0.5
	c-1.7,0.3-4.1,0.6-7.1,0.6c-3.1,0-5.6-0.2-7.3-0.6c-0.3-0.1-0.4-0.3-0.5-0.5L196,313L195.8,313L195.8,313z M272.3,343
	c0.3,0,0.5,0.2,0.6,0.4c0.3,0.9,0.5,2.3,0.5,3.8c0,1.5-0.2,3-0.5,3.9c-0.1,0.3-0.3,0.4-0.6,0.4h-33.8c-0.4,0-0.6-0.3-0.6-0.6v-45.8
	c0-0.4,0.3-0.6,0.6-0.6h33.3c0.3,0,0.5,0.2,0.6,0.4c0.3,0.9,0.5,2.3,0.5,3.8c0,1.5-0.2,2.9-0.5,3.8c-0.1,0.3-0.3,0.4-0.6,0.4h-23
	v10.7h21.2c0.3,0,0.5,0.1,0.6,0.4c0.3,0.9,0.6,2.2,0.6,3.8c0,1.5-0.2,2.9-0.6,3.8c-0.1,0.2-0.3,0.4-0.6,0.4h-21.2V343L272.3,343z
	 M65.6,305.3c0-0.3,0.2-0.6,0.5-0.6c3.9-0.7,10.1-1.2,15.2-1.2c12.4,0,23.2,3,23.2,16.2c0,14.1-9.5,17.5-27.9,17.5v13.2
	c0,0.3-0.1,0.5-0.4,0.6c-1.1,0.4-2.8,0.7-5.1,0.7c-2.3,0-4-0.3-5.1-0.7c-0.3-0.1-0.4-0.3-0.4-0.6L65.6,305.3L65.6,305.3z
	 M76.5,328.5c9.4,0,16.8,0,16.8-8.3c0-6.1-4.8-7.9-11.8-7.9c-1.7,0-3.4,0.1-5,0.4V328.5z M292.4,327v-14.3c1.6-0.3,3.3-0.4,5-0.4
	c7,0,11.6,1.1,11.6,7.3C308.9,326.4,303.1,327.9,292.4,327z M323.2,349.9l-11.1-16.7c5.3-2.7,7.9-7.3,7.9-14.1
	c0-12.8-10.5-15.6-22.9-15.6c-4.9,0-11.8,0.4-15.2,1.2c-0.3,0.1-0.5,0.3-0.5,0.6v45.2c0,0.3,0.1,0.5,0.4,0.6
	c1.1,0.4,2.9,0.7,5.2,0.7c2.3,0,4-0.3,5.1-0.7c0.2-0.1,0.4-0.3,0.4-0.6v-14.7c3.3,0.2,6.3,0.2,9,0l10,15.4c0.1,0.1,0.2,0.2,0.3,0.2
	c1.5,0.4,3.5,0.5,6.4,0.3c2.1-0.1,3.8-0.4,4.8-0.9C323.4,350.7,323.5,350.3,323.2,349.9z"/>
<polygon class="st0" points="-70.3,254.8 -42.4,303.2 -14.4,254.8 -42.4,206.5 "/>
<polygon class="st0" points="-70.3,351.5 -42.4,303.2 -98.2,303.2 -126.1,351.5 "/>
<polygon class="st0" points="13.5,303.2 -42.4,303.2 -14.4,351.5 41.4,351.5 "/>
</svg>
